<svg xmlns="http://www.w3.org/2000/svg" width="920" height="460" viewBox="0 0 920 460">
<style>
text { font-family: Arial, sans-serif; fill: #17212b; }
.title { font-size: 22px; font-weight: 700; }
.label { font-size: 13px; }
.legend { font-size: 13px; font-weight: 700; }
.value { font-size: 13px; font-weight: 700; }
</style>
<rect width="920" height="460" fill="#ffffff" />
<text x="160" y="32" class="title">Why One Slow Rank Hurts Everyone</text>
<line x1="160.0" y1="54" x2="160.0" y2="388" stroke="#e2e8f0" />
<text x="160.0" y="412" text-anchor="middle" class="label">0</text>
<line x1="337.5" y1="54" x2="337.5" y2="388" stroke="#e2e8f0" />
<text x="337.5" y="412" text-anchor="middle" class="label">26</text>
<line x1="515.0" y1="54" x2="515.0" y2="388" stroke="#e2e8f0" />
<text x="515.0" y="412" text-anchor="middle" class="label">51</text>
<line x1="692.5" y1="54" x2="692.5" y2="388" stroke="#e2e8f0" />
<text x="692.5" y="412" text-anchor="middle" class="label">77</text>
<line x1="870.0" y1="54" x2="870.0" y2="388" stroke="#e2e8f0" />
<text x="870.0" y="412" text-anchor="middle" class="label">103</text>
<text x="150" y="78.4" text-anchor="end" class="label">baseline r0</text>
<rect x="160" y="60.0" width="5.4" height="28.8" rx="5" fill="#f97316" />
<rect x="165.4" y="60.0" width="480.9" height="28.8" rx="5" fill="#2563eb" />
<text x="654.4" y="78.4" class="value">70.2 ms</text>
<text x="150" y="121.1" text-anchor="end" class="label">baseline r1</text>
<rect x="160" y="102.8" width="6.4" height="28.8" rx="5" fill="#f97316" />
<rect x="166.4" y="102.8" width="479.4" height="28.8" rx="5" fill="#2563eb" />
<text x="653.7" y="121.1" class="value">70.1 ms</text>
<text x="150" y="163.9" text-anchor="end" class="label">baseline r2</text>
<rect x="160" y="145.5" width="5.2" height="28.8" rx="5" fill="#f97316" />
<rect x="165.2" y="145.5" width="480.6" height="28.8" rx="5" fill="#2563eb" />
<text x="653.9" y="163.9" class="value">70.2 ms</text>
<text x="150" y="206.6" text-anchor="end" class="label">baseline r3</text>
<rect x="160" y="188.2" width="6.0" height="28.8" rx="5" fill="#f97316" />
<rect x="166.0" y="188.2" width="478.4" height="28.8" rx="5" fill="#2563eb" />
<text x="652.5" y="206.6" class="value">70.0 ms</text>
<text x="150" y="249.4" text-anchor="end" class="label">skew r0</text>
<rect x="160" y="231.0" width="309.1" height="28.8" rx="5" fill="#f97316" />
<rect x="469.1" y="231.0" width="398.5" height="28.8" rx="5" fill="#2563eb" />
<text x="875.6" y="249.4" class="value">102.2 ms</text>
<text x="150" y="292.1" text-anchor="end" class="label">skew r1</text>
<rect x="160" y="273.8" width="5.2" height="28.8" rx="5" fill="#f97316" />
<rect x="165.2" y="273.8" width="704.8" height="28.8" rx="5" fill="#2563eb" />
<text x="878.0" y="292.1" class="value">102.5 ms</text>
<text x="150" y="334.9" text-anchor="end" class="label">skew r2</text>
<rect x="160" y="316.5" width="5.4" height="28.8" rx="5" fill="#f97316" />
<rect x="165.4" y="316.5" width="702.1" height="28.8" rx="5" fill="#2563eb" />
<text x="875.4" y="334.9" class="value">102.2 ms</text>
<text x="150" y="377.6" text-anchor="end" class="label">skew r3</text>
<rect x="160" y="359.2" width="5.6" height="28.8" rx="5" fill="#f97316" />
<rect x="165.6" y="359.2" width="702.8" height="28.8" rx="5" fill="#2563eb" />
<text x="876.4" y="377.6" class="value">102.3 ms</text>
<rect x="160" y="422" width="16" height="16" rx="3" fill="#f97316" />
<text x="182" y="434" class="legend">data wait</text>
<rect x="280" y="422" width="16" height="16" rx="3" fill="#2563eb" />
<text x="302" y="434" class="legend">compute + sync</text>
<text x="460.0" y="452" text-anchor="middle" class="label">steady-state time (ms)</text>
</svg>
