<svg xmlns="http://www.w3.org/2000/svg" width="820" height="360" viewBox="0 0 820 360">
<style>
text { font-family: Arial, sans-serif; fill: #17212b; }
.title { font-size: 22px; font-weight: 700; }
.label { font-size: 14px; }
.value { font-size: 14px; font-weight: 700; }
.axis { stroke: #94a3b8; stroke-width: 1; }
</style>
<rect width="820" height="360" fill="#ffffff" />
<text x="220" y="30" class="title">Strong Scaling Efficiency</text>
<line x1="220" y1="300" x2="760" y2="300" class="axis" />
<text x="208" y="94.7" text-anchor="end" class="label">ws=1</text>
<rect x="220" y="54.0" width="540.0" height="71.3" rx="6" fill="#7c3aed" />
<text x="768.0" y="94.7" class="value">100.0 %</text>
<text x="208" y="182.0" text-anchor="end" class="label">ws=2</text>
<rect x="220" y="141.3" width="366.0" height="71.3" rx="6" fill="#7c3aed" />
<text x="594.0" y="182.0" class="value">67.8 %</text>
<text x="208" y="269.3" text-anchor="end" class="label">ws=4</text>
<rect x="220" y="228.7" width="161.4" height="71.3" rx="6" fill="#7c3aed" />
<text x="389.4" y="269.3" class="value">29.9 %</text>
<line x1="220.0" y1="46" x2="220.0" y2="300" stroke="#e2e8f0" />
<text x="220.0" y="324" text-anchor="middle" class="label">0</text>
<line x1="355.0" y1="46" x2="355.0" y2="300" stroke="#e2e8f0" />
<text x="355.0" y="324" text-anchor="middle" class="label">25</text>
<line x1="490.0" y1="46" x2="490.0" y2="300" stroke="#e2e8f0" />
<text x="490.0" y="324" text-anchor="middle" class="label">50</text>
<line x1="625.0" y1="46" x2="625.0" y2="300" stroke="#e2e8f0" />
<text x="625.0" y="324" text-anchor="middle" class="label">75</text>
<line x1="760.0" y1="46" x2="760.0" y2="300" stroke="#e2e8f0" />
<text x="760.0" y="324" text-anchor="middle" class="label">100</text>
</svg>
