<svg xmlns="http://www.w3.org/2000/svg" width="860" height="420" viewBox="0 0 860 420">
<style>
text { font-family: Arial, sans-serif; fill: #17212b; }
.title { font-size: 22px; font-weight: 700; }
.label { font-size: 13px; }
.legend { font-size: 13px; font-weight: 700; }
</style>
<rect width="860" height="420" fill="#ffffff" />
<text x="80" y="30" class="title">Weak Scaling Throughput</text>
<line x1="80" y1="58.0" x2="828" y2="58.0" stroke="#e2e8f0" />
<text x="72" y="62.0" text-anchor="end" class="label">17055</text>
<line x1="80" y1="130.5" x2="828" y2="130.5" stroke="#e2e8f0" />
<text x="72" y="134.5" text-anchor="end" class="label">12791</text>
<line x1="80" y1="203.0" x2="828" y2="203.0" stroke="#e2e8f0" />
<text x="72" y="207.0" text-anchor="end" class="label">8527</text>
<line x1="80" y1="275.5" x2="828" y2="275.5" stroke="#e2e8f0" />
<text x="72" y="279.5" text-anchor="end" class="label">4264</text>
<line x1="80" y1="348.0" x2="828" y2="348.0" stroke="#e2e8f0" />
<text x="72" y="352.0" text-anchor="end" class="label">0</text>
<line x1="80.0" y1="58" x2="80.0" y2="348" stroke="#f1f5f9" />
<text x="80.0" y="370" text-anchor="middle" class="label">1</text>
<line x1="329.3" y1="58" x2="329.3" y2="348" stroke="#f1f5f9" />
<text x="329.3" y="370" text-anchor="middle" class="label">2</text>
<line x1="828.0" y1="58" x2="828.0" y2="348" stroke="#f1f5f9" />
<text x="828.0" y="370" text-anchor="middle" class="label">4</text>
<polyline fill="none" stroke="#94a3b8" stroke-width="3" stroke-dasharray="8 6" points="80.0,275.5 329.3,203.0 828.0,58.0" />
<polyline fill="none" stroke="#0f766e" stroke-width="3" points="80.0,275.5 329.3,245.9 828.0,224.1" />
<circle cx="80.0" cy="275.5" r="5" fill="#0f766e" />
<circle cx="329.3" cy="245.9" r="5" fill="#0f766e" />
<circle cx="828.0" cy="224.1" r="5" fill="#0f766e" />
<rect x="80" y="382" width="16" height="16" rx="3" fill="#0f766e" />
<text x="102" y="394" class="legend">observed</text>
<line x1="206" y1="390" x2="234" y2="390" stroke="#94a3b8" stroke-width="3" stroke-dasharray="8 6" />
<text x="242" y="394" class="legend">ideal</text>
<text x="430.0" y="412" text-anchor="middle" class="label">world size</text>
<text x="22" y="210.0" text-anchor="middle" class="label" transform="rotate(-90 22 210.0)">global throughput (samples/s)</text>
</svg>
