<svg xmlns="http://www.w3.org/2000/svg" width="840" height="420" viewBox="0 0 840 420">
<style>
text { font-family: Arial, sans-serif; fill: #1f2933; }
.title { font-size: 22px; font-weight: 700; }
.label { font-size: 13px; }
.legend { font-size: 13px; font-weight: 700; }
</style>
<rect width="840" height="420" fill="#ffffff" />
<text x="70" y="28" class="title">Data Pipeline Step-Time Jitter</text>
<line x1="70" y1="50.0" x2="810" y2="50.0" stroke="#e2e8f0" />
<text x="62" y="54.0" text-anchor="end" class="label">855</text>
<line x1="70" y1="125.0" x2="810" y2="125.0" stroke="#e2e8f0" />
<text x="62" y="129.0" text-anchor="end" class="label">641</text>
<line x1="70" y1="200.0" x2="810" y2="200.0" stroke="#e2e8f0" />
<text x="62" y="204.0" text-anchor="end" class="label">428</text>
<line x1="70" y1="275.0" x2="810" y2="275.0" stroke="#e2e8f0" />
<text x="62" y="279.0" text-anchor="end" class="label">214</text>
<line x1="70" y1="350.0" x2="810" y2="350.0" stroke="#e2e8f0" />
<text x="62" y="354.0" text-anchor="end" class="label">0</text>
<line x1="70.0" y1="50" x2="70.0" y2="350" stroke="#f1f5f9" />
<text x="70.0" y="372" text-anchor="middle" class="label">0</text>
<line x1="137.3" y1="50" x2="137.3" y2="350" stroke="#f1f5f9" />
<text x="137.3" y="372" text-anchor="middle" class="label">1</text>
<line x1="204.5" y1="50" x2="204.5" y2="350" stroke="#f1f5f9" />
<text x="204.5" y="372" text-anchor="middle" class="label">2</text>
<line x1="271.8" y1="50" x2="271.8" y2="350" stroke="#f1f5f9" />
<text x="271.8" y="372" text-anchor="middle" class="label">3</text>
<line x1="339.1" y1="50" x2="339.1" y2="350" stroke="#f1f5f9" />
<text x="339.1" y="372" text-anchor="middle" class="label">4</text>
<line x1="406.4" y1="50" x2="406.4" y2="350" stroke="#f1f5f9" />
<text x="406.4" y="372" text-anchor="middle" class="label">5</text>
<line x1="473.6" y1="50" x2="473.6" y2="350" stroke="#f1f5f9" />
<text x="473.6" y="372" text-anchor="middle" class="label">6</text>
<line x1="540.9" y1="50" x2="540.9" y2="350" stroke="#f1f5f9" />
<text x="540.9" y="372" text-anchor="middle" class="label">7</text>
<line x1="608.2" y1="50" x2="608.2" y2="350" stroke="#f1f5f9" />
<text x="608.2" y="372" text-anchor="middle" class="label">8</text>
<line x1="675.5" y1="50" x2="675.5" y2="350" stroke="#f1f5f9" />
<text x="675.5" y="372" text-anchor="middle" class="label">9</text>
<line x1="742.7" y1="50" x2="742.7" y2="350" stroke="#f1f5f9" />
<text x="742.7" y="372" text-anchor="middle" class="label">10</text>
<line x1="810.0" y1="50" x2="810.0" y2="350" stroke="#f1f5f9" />
<text x="810.0" y="372" text-anchor="middle" class="label">11</text>
<polyline fill="none" stroke="#c2410c" stroke-width="3" points="70.0,88.2 137.3,127.0 204.5,131.2 271.8,129.5 339.1,131.1 406.4,132.1 473.6,132.4 540.9,132.3 608.2,132.2 675.5,132.3 742.7,132.3 810.0,131.1" />
<rect x="70" y="388" width="14" height="14" fill="#c2410c" rx="3" />
<text x="90" y="400" class="legend">Data bottleneck (workers=0)</text>
<polyline fill="none" stroke="#0284c7" stroke-width="3" points="70.0,60.3 137.3,348.9 204.5,349.4 271.8,349.4 339.1,194.8 406.4,349.1 473.6,349.4 540.9,349.2 608.2,136.3 675.5,349.3 742.7,349.3 810.0,349.5" />
<rect x="300" y="388" width="14" height="14" fill="#0284c7" rx="3" />
<text x="320" y="400" class="legend">Data bottleneck fixed (workers=4)</text>
<polyline fill="none" stroke="#16a34a" stroke-width="3" points="70.0,50.0 137.3,348.7 204.5,349.4 271.8,349.4 339.1,349.4 406.4,349.4 473.6,349.2 540.9,349.5 608.2,202.5 675.5,349.0 742.7,349.4 810.0,349.0" />
<rect x="530" y="388" width="14" height="14" fill="#16a34a" rx="3" />
<text x="550" y="400" class="legend">Data bottleneck fixed (workers=8)</text>
<text x="420.0" y="414" text-anchor="middle" class="label">step</text>
<text x="18" y="210.0" text-anchor="middle" class="label" transform="rotate(-90 18 210.0)">step time (ms)</text>
</svg>
